<?xml version="1.0" encoding="iso-8859-1"?>
<!-- Uploaded to: SVG Repo, www.svgrepo.com, Generator: SVG Repo Mixer Tools -->
<svg fill="#000000" height="800px" width="800px" version="1.1" id="Layer_1" xmlns="http://www.w3.org/2000/svg" xmlns:xlink="http://www.w3.org/1999/xlink" 
	 viewBox="0 0 512.64 512.64" xml:space="preserve">
<g transform="translate(1 1)">
	<g>
		<g>
			<path d="M169.857,323.907H84.524c-5.12,0-8.533,3.413-8.533,8.533v85.333c0,5.12,3.413,8.533,8.533,8.533h85.333
				c5.12,0,8.533-3.413,8.533-8.533V332.44C178.39,327.32,174.977,323.907,169.857,323.907z M93.057,340.973h25.6v68.267h-25.6
				V340.973z M161.324,409.24h-25.6v-68.267h25.6V409.24z"/>
			<path d="M425.857,323.907h-85.333c-5.12,0-8.533,3.413-8.533,8.533v85.333c0,5.12,3.413,8.533,8.533,8.533h85.333
				c4.267,0,8.533-3.413,8.533-8.533V332.44C434.39,327.32,430.977,323.907,425.857,323.907z M349.057,340.973h25.6v68.267h-25.6
				V340.973z M417.324,409.24h-25.6v-68.267h25.6V409.24z"/>
			<path d="M246.657,434.84h-8.533c-5.12,0-8.533,3.413-8.533,8.533s3.413,8.533,8.533,8.533h8.533c5.12,0,8.533-3.413,8.533-8.533
				S251.777,434.84,246.657,434.84z"/>
			<path d="M502.657,494.573h-34.133V272.707h6.827c7.68,0,14.507-5.12,17.92-12.8c2.56-6.827,0.853-15.36-5.12-20.48l-10.583-9.387
				h25.09c3.413,0,5.973-1.707,7.68-5.12c1.707-3.413,1.707-6.827-0.853-9.387l-53.295-62.293h29.402
				c3.413,0,5.973-1.707,6.827-4.267c1.707-3.413,0.853-6.827-0.853-9.387l-37.522-46.08h14.482c3.413,0,5.973-1.707,7.68-5.12
				c1.707-3.413,0.853-6.827-0.853-9.387L415.617,2.2c-3.413-4.267-10.24-4.267-13.653,0L342.23,79
				c-1.707,2.56-2.56,6.827-0.853,9.387c1.707,3.413,4.267,5.12,7.68,5.12h13.511l-16.547,19.857l-54.137-48.017
				c-20.48-19.627-52.907-19.627-73.387,0l-54.956,48.744l-16.724-20.583h14.507c3.413,0,5.973-1.707,7.68-4.267
				c1.707-3.413,0.853-6.827-0.853-9.387l-59.733-76.8c-3.413-4.267-10.24-4.267-13.653,0l-59.733,76.8
				c-1.707,2.56-2.56,5.973-0.853,8.533c1.707,3.413,4.267,5.12,7.68,5.12h13.629l-37.522,46.08c-1.707,2.56-2.56,5.12-0.853,8.533
				s4.267,5.12,7.68,5.12h29.402L0.897,215.533c-1.707,2.56-2.56,5.973-0.853,9.387s4.267,5.12,7.68,5.12h25.09l-10.583,9.387
				c-5.973,5.973-7.68,13.653-5.12,21.333c2.56,6.827,10.24,11.947,17.92,11.947h6.827V465.56c0,12.989,0,22.315,0.191,29.013H7.724
				c-5.12,0-8.533,3.413-8.533,8.533s3.413,8.533,8.533,8.533H50.39h153.6h102.4h153.6h42.667c5.12,0,8.533-3.413,8.533-8.533
				S507.777,494.573,502.657,494.573z M483.884,212.973h-25.558l-67.346-59.733h41.705L483.884,212.973z M408.79,21.827
				l42.667,54.613h-15.36H380.63h-14.507L408.79,21.827z M359.297,125.08l25.6-31.573h47.787l34.987,42.667h-30.72h-55.467h-9.746
				l-11.014-9.769L359.297,125.08z M101.59,21.827l42.667,54.613h-15.36H73.43H58.924L101.59,21.827z M77.697,93.507h47.787
				l25.6,31.573l-1.427,1.325l-11.013,9.768h-9.746H73.43H42.71L77.697,93.507z M26.497,212.973l51.2-59.733h41.705l-67.346,59.733
				H26.497z M33.324,254.787c0-0.853,0-1.707,0.853-2.56l44.256-39.253h6.09c5.12,0,8.533-3.413,8.533-8.533
				c0-1.402-0.264-2.669-0.741-3.78l53.463-47.42h7.011c5.12,0,8.533-3.413,8.533-8.533c0-1.65-0.359-3.119-1.011-4.357
				l70.131-62.203c6.827-6.827,16.213-10.24,24.747-10.24c8.533,0,17.92,3.413,24.747,11.093l69.849,61.953
				c-0.469,1.104-0.729,2.363-0.729,3.754c0,5.12,3.413,8.533,8.533,8.533h6.049l54.183,48.058c-0.32,0.952-0.498,2.002-0.498,3.142
				c0,5.12,3.413,8.533,8.533,8.533h5.128l45.218,40.107c0.853,0,1.707,0.853,0.853,1.707s-1.707,0.853-1.707,0.853h-15.36H50.39
				H35.03C34.177,255.64,33.324,255.64,33.324,254.787z M212.524,494.573v-128h85.333v128H212.524z M314.924,494.573V358.04
				c0-5.12-3.413-8.533-8.533-8.533h-102.4c-5.12,0-8.533,3.413-8.533,8.533v136.533H58.924c0-36.693,0-184.32,0-221.867h392.533
				v221.867H314.924z"/>
			<path d="M189.484,153.24h18.773c5.12,0,8.533-3.413,8.533-8.533c0-5.12-3.413-8.533-8.533-8.533h-18.773
				c-5.12,0-8.533,3.413-8.533,8.533C180.95,149.827,184.364,153.24,189.484,153.24z"/>
			<path d="M245.804,153.24h18.773c4.267,0,8.533-3.413,8.533-8.533c0-5.12-3.413-8.533-8.533-8.533h-18.773
				c-5.12,0-8.533,3.413-8.533,8.533C237.27,149.827,240.684,153.24,245.804,153.24z"/>
			<path d="M301.27,153.24h18.773c5.12,0,8.533-3.413,8.533-8.533c0-5.12-3.413-8.533-8.533-8.533H301.27
				c-5.12,0-8.533,3.413-8.533,8.533C292.737,149.827,296.15,153.24,301.27,153.24z"/>
			<path d="M314.924,204.44c0,5.12,3.413,8.533,8.533,8.533h17.067c5.12,0,8.533-3.413,8.533-8.533c0-5.12-3.413-8.533-8.533-8.533
				h-17.067C318.337,195.907,314.924,199.32,314.924,204.44z"/>
			<path d="M118.657,212.973h17.067c5.12,0,8.533-3.413,8.533-8.533c0-5.12-3.413-8.533-8.533-8.533h-17.067
				c-5.12,0-8.533,3.413-8.533,8.533C110.124,209.56,113.537,212.973,118.657,212.973z"/>
			<path d="M169.857,212.973h17.067c5.12,0,8.533-3.413,8.533-8.533c0-5.12-3.413-8.533-8.533-8.533h-17.067
				c-5.12,0-8.533,3.413-8.533,8.533C161.324,209.56,164.737,212.973,169.857,212.973z"/>
			<path d="M374.657,212.973h17.067c5.12,0,8.533-3.413,8.533-8.533c0-5.12-3.413-8.533-8.533-8.533h-17.067
				c-5.12,0-8.533,3.413-8.533,8.533C366.124,209.56,369.537,212.973,374.657,212.973z"/>
			<path d="M263.724,204.44c0,5.12,3.413,8.533,8.533,8.533h17.067c5.12,0,8.533-3.413,8.533-8.533c0-5.12-3.413-8.533-8.533-8.533
				h-17.067C267.137,195.907,263.724,199.32,263.724,204.44z"/>
			<path d="M212.524,204.44c0,5.12,3.413,8.533,8.533,8.533h17.067c5.12,0,8.533-3.413,8.533-8.533c0-5.12-3.413-8.533-8.533-8.533
				h-17.067C215.937,195.907,212.524,199.32,212.524,204.44z"/>
		</g>
	</g>
</g>
</svg>